<svg xmlns="http://www.w3.org/2000/svg" viewBox="0 0 1200 900" role="img" aria-labelledby="title desc">
  <title id="title">100W Portable Solar Panel</title>
  <desc id="desc">Illustrated placeholder image for 100W portable solar panel product.</desc>
  <defs>
    <linearGradient id="sky" x1="0" y1="0" x2="0" y2="1">
      <stop offset="0%" stop-color="#0c2f4a"/>
      <stop offset="100%" stop-color="#133f61"/>
    </linearGradient>
  </defs>
  <rect width="1200" height="900" fill="url(#sky)"/>
  <circle cx="920" cy="210" r="80" fill="#c9a648"/>
  <rect x="260" y="220" width="680" height="420" rx="28" fill="#1a4a6e" stroke="#f7f5f2" stroke-width="8"/>
  <g stroke="#f7f5f2" stroke-width="4">
    <line x1="320" y1="260" x2="320" y2="600"/>
    <line x1="400" y1="260" x2="400" y2="600"/>
    <line x1="480" y1="260" x2="480" y2="600"/>
    <line x1="560" y1="260" x2="560" y2="600"/>
    <line x1="640" y1="260" x2="640" y2="600"/>
    <line x1="720" y1="260" x2="720" y2="600"/>
    <line x1="800" y1="260" x2="800" y2="600"/>
    <line x1="880" y1="260" x2="880" y2="600"/>
    <line x1="300" y1="300" x2="900" y2="300"/>
    <line x1="300" y1="360" x2="900" y2="360"/>
    <line x1="300" y1="420" x2="900" y2="420"/>
    <line x1="300" y1="480" x2="900" y2="480"/>
    <line x1="300" y1="540" x2="900" y2="540"/>
  </g>
  <text x="600" y="730" text-anchor="middle" fill="#f7f5f2" font-family="Arial, sans-serif" font-size="48" font-weight="700">
    100W Portable Solar Panel
  </text>
</svg>
